<?xml version="1.0" encoding="UTF-8" standalone="no"?>
<!-- Created with Inkscape (http://www.inkscape.org/) -->

<svg
   width="32"
   height="128"
   viewBox="0 0 8.4666672 33.866666"
   version="1.1"
   id="svg1"
   inkscape:export-filename="frontdoor_num.png"
   inkscape:export-xdpi="192"
   inkscape:export-ydpi="192"
   inkscape:version="1.3 (0e150ed6c4, 2023-07-21)"
   sodipodi:docname="num.svg"
   xmlns:inkscape="http://www.inkscape.org/namespaces/inkscape"
   xmlns:sodipodi="http://sodipodi.sourceforge.net/DTD/sodipodi-0.dtd"
   xmlns="http://www.w3.org/2000/svg"
   xmlns:svg="http://www.w3.org/2000/svg">
  <sodipodi:namedview
     id="namedview1"
     pagecolor="#ffffff"
     bordercolor="#111111"
     borderopacity="1"
     inkscape:showpageshadow="0"
     inkscape:pageopacity="0"
     inkscape:pagecheckerboard="1"
     inkscape:deskcolor="#d1d1d1"
     inkscape:document-units="px"
     inkscape:zoom="5.8368688"
     inkscape:cx="-31.866401"
     inkscape:cy="31.266764"
     inkscape:window-width="1920"
     inkscape:window-height="1001"
     inkscape:window-x="0"
     inkscape:window-y="0"
     inkscape:window-maximized="1"
     inkscape:current-layer="text1" />
  <defs
     id="defs1" />
  <g
     inkscape:groupmode="layer"
     id="layer2"
     inkscape:label="Layer 2">
    <rect
       style="fill:#ffffff;fill-opacity:1;stroke-width:0.0935439"
       id="rect1"
       width="8.4666672"
       height="33.866669"
       x="0"
       y="0" />
  </g>
  <g
     inkscape:label="Layer 1"
     inkscape:groupmode="layer"
     id="layer1">
    <g
       id="text1"
       style="font-size:8.47745px;line-height:0.8;text-align:center;letter-spacing:0.443753px;text-anchor:middle;stroke-width:0.317903"
       aria-label="  2&#10;34&#10;56&#10;78&#10;90">
      <path
         style="font-family:'Arial Narrow';-inkscape-font-specification:'Arial Narrow'"
         d="M 8.0063802,5.3770541 V 6.0931668 H 4.7155731 Q 4.7031549,5.6585319 4.976354,5.1204125 5.2536925,4.5822931 5.9863627,3.8496228 6.8432144,2.9969105 7.1081347,2.5333 7.3730551,2.06555 7.3730551,1.6640302 7.3730551,1.2004196 7.099856,0.91066299 6.8307963,0.616767 6.4334158,0.616767 q -0.4263562,0 -0.6995552,0.31459289 Q 5.4606615,1.2459528 5.4606615,1.8337447 L 4.8314757,1.7550965 Q 4.8977058,0.88168733 5.3240619,0.44291304 5.7545575,-6.2584877e-7 6.4541127,-6.2584877e-7 q 0.7616459,0 1.1507477,0.51328312584877 0.3932411,0.5132831 0.3932411,1.1673052 0,0.5795132 -0.3063142,1.1134932 Q 7.3854732,3.3239216 6.5286215,4.2097489 5.9822234,4.7685652 5.8207875,4.9713948 5.6634911,5.1742245 5.564146,5.3770541 Z"
         id="path7" />
      <path
         style="font-family:'Arial Narrow';-inkscape-font-specification:'Arial Narrow'"
         d="m 0.45779928,11.370394 0.61262822,-0.09934 q 0.1904115,1.192142 0.9644756,1.192142 0.4180774,0 0.7243915,-0.351848 0.3063141,-0.355986 0.3063141,-0.918942 0,-0.529841 -0.2814778,-0.852712 -0.2814778,-0.322872 -0.6912765,-0.322872 -0.1738539,0 -0.4304955,0.08279 l 0.070369,-0.6540226 0.095206,0.00828 q 0.4511924,0 0.7326703,-0.2773385 0.2814778,-0.2773384 0.2814778,-0.740949 0,-0.4263561 -0.2359446,-0.6829977 -0.2359447,-0.2607809 -0.5753739,-0.2607809 -0.3518473,0 -0.5960707,0.273199 Q 1.194609,8.0340538 1.1283789,8.5845914 L 0.51988998,8.4521312 Q 0.63579262,7.6739278 1.0414519,7.2765473 1.4471111,6.8791668 2.022485,6.8791668 q 0.6043495,0 1.0265662,0.4470531 0.4222168,0.447053 0.4222168,1.1259113 0,0.413938 -0.1821327,0.7326703 -0.1779934,0.3187323 -0.500865,0.500865 0.2980353,0.082788 0.4925862,0.2731991 0.1945509,0.1904114 0.3145929,0.5091444 0.120042,0.318732 0.120042,0.711973 0,0.836155 -0.4925862,1.370135 -0.4925862,0.52984 -1.1797233,0.52984 -0.6374646,0 -1.08037825,-0.46361 -0.44291367,-0.463611 -0.50500437,-1.245954 z m 6.26372112,1.60194 V 11.519412 H 4.5649033 V 10.836414 L 6.837423,6.9040031 h 0.4967256 v 3.9324109 h 0.674719 v 0.682998 h -0.674719 v 1.452922 z m 0,-2.13592 V 8.1002839 L 5.1651135,10.836414 Z"
         id="path8" />
      <path
         style="font-family:'Arial Narrow';-inkscape-font-specification:'Arial Narrow'"
         d="m 0.44952054,18.129689 0.64160386,-0.06623 q 0.074509,0.579513 0.3352898,0.865131 0.2649203,0.281477 0.6126283,0.281477 0.4346349,0 0.7492278,-0.39738 0.3145928,-0.40152 0.3145928,-1.092796 0,-0.649883 -0.3063141,-1.00587 -0.3021747,-0.360126 -0.7616459,-0.360126 -0.2773385,0 -0.5215619,0.157297 -0.240084,0.153157 -0.380823,0.430495 L 0.55714442,16.850621 1.0414519,13.733668 h 2.4712099 v 0.711973 H 1.5298987 L 1.260839,16.076557 q 0.4429137,-0.380823 0.9396393,-0.380823 0.6250464,0 1.0845176,0.53398 0.4636105,0.52984 0.4636105,1.432225 0,0.889967 -0.4636105,1.527431 -0.4594712,0.633326 -1.2376747,0.633326 -0.6457433,0 -1.09279629,-0.447053 Q 0.51161124,18.92445 0.44952054,18.129689 Z M 7.9302193,15.136917 7.3217304,15.194867 Q 7.2348034,14.727117 7.0650889,14.528426 6.8208655,14.23867 6.4772969,14.23867 q -0.53398,0 -0.8568517,0.662301 -0.2773384,0.571234 -0.2814778,1.688867 0.2111084,-0.397381 0.5298406,-0.60021 0.3187323,-0.206969 0.674719,-0.206969 0.5919313,0 1.0307056,0.538119 0.4429137,0.53398 0.4429137,1.432226 0,0.608488 -0.2235265,1.105214 -0.2193872,0.492586 -0.5670951,0.728531 -0.3477079,0.235945 -0.7657853,0.235945 -0.7533672,0 -1.241814,-0.678859 -0.4884469,-0.678858 -0.4884469,-2.264241 0,-1.759236 0.500865,-2.504325 0.500865,-0.749227 1.2832078,-0.749227 0.5670951,0 0.9479181,0.389101 0.3849623,0.384963 0.4677499,1.121772 z m -2.4960462,2.616089 q 0,0.658161 0.3104535,1.059681 0.3104535,0.39738 0.7202522,0.39738 0.360126,0 0.6416039,-0.376683 0.2856172,-0.376684 0.2856172,-1.034845 0,-0.645744 -0.2814778,-1.00173 -0.2814779,-0.355987 -0.6871371,-0.355987 -0.3973805,0 -0.6954159,0.355987 -0.293896,0.351847 -0.293896,0.956197 z"
         id="path9" />
      <path
         style="font-family:'Arial Narrow';-inkscape-font-specification:'Arial Narrow'"
         d="M 0.46193869,21.192515 V 20.476402 H 3.6823764 v 0.579513 q -0.7202521,0.9355 -1.2666503,2.438095 -0.5463982,1.498455 -0.6291858,2.972075 H 1.1573546 Q 1.1697726,25.704439 1.3974386,24.690291 1.6292439,23.676143 2.0307638,22.7572 2.4322836,21.838258 2.8958942,21.192515 Z M 5.6701179,23.175278 Q 5.301713,23.009702 5.1113016,22.703388 4.9250295,22.392935 4.9250295,21.933464 q 0,-0.691277 0.4056592,-1.125912 0.4097986,-0.434635 1.0265663,-0.434635 0.620907,0 1.0307056,0.442914 0.413938,0.442914 0.413938,1.142469 0,0.438774 -0.1821327,0.745088 -0.1821327,0.302175 -0.5505376,0.47189 0.4511925,0.177993 0.6912765,0.575373 0.2442234,0.397381 0.2442234,0.985173 0,0.811318 -0.4718893,1.324601 -0.46775,0.509144 -1.1631658,0.509144 -0.7036946,0 -1.1755839,-0.509144 -0.46775,-0.513283 -0.46775,-1.345298 0,-0.608489 0.2483628,-1.00173 0.2525022,-0.39738 0.6954159,-0.538119 z M 5.5542152,21.912767 q 0,0.447053 0.2359447,0.711973 0.2359446,0.26492 0.5795132,0.26492 0.3352898,0 0.5712344,-0.260781 0.2359447,-0.260781 0.2359447,-0.674719 0,-0.426356 -0.2442234,-0.695415 -0.2400841,-0.273199 -0.5712345,-0.273199 -0.3311504,0 -0.5712344,0.26492 -0.2359447,0.26492 -0.2359447,0.662301 z m -0.2028296,2.80236 q 0,0.558816 0.2980354,0.902385 0.3021747,0.339429 0.7202521,0.339429 0.4222168,0 0.7161127,-0.33115 0.293896,-0.331151 0.293896,-0.885828 0,-0.558816 -0.3021747,-0.898245 -0.3021748,-0.343569 -0.7243915,-0.343569 -0.4180774,0 -0.7119734,0.339429 -0.2897566,0.33943 -0.2897566,0.877549 z"
         id="path10" />
      <path
         style="font-family:'Arial Narrow';-inkscape-font-specification:'Arial Narrow'"
         d="M 0.54679595,31.80971 1.134588,31.74348 q 0.1407389,0.960337 0.827876,0.960337 0.3063141,0 0.5546769,-0.206969 0.2525022,-0.211109 0.4263561,-0.745089 0.173854,-0.53398 0.173854,-1.245953 v -0.149018 q -0.1904115,0.368405 -0.5132831,0.583653 -0.3228717,0.215247 -0.6581614,0.215247 -0.6084889,0 -1.05140264,-0.52984 -0.43877427,-0.53398 -0.43877427,-1.457062 0,-0.952057 0.45533177,-1.498456 0.45947124,-0.550537 1.11349334,-0.550537 0.4636105,0 0.8651304,0.306314 0.4015199,0.306314 0.620907,0.902385 0.2193872,0.596071 0.2193872,1.717843 0,1.250092 -0.2359447,1.941369 -0.2359447,0.691276 -0.6416039,1.010009 -0.4015199,0.318732 -0.9023849,0.318732 -0.567095,0 -0.947918,-0.384962 Q 0.62130479,32.54238 0.54679595,31.80971 Z M 3.0511209,29.131531 q 0,-0.649883 -0.2897566,-1.022427 -0.2897566,-0.372544 -0.6664402,-0.372544 -0.3932411,0 -0.7036946,0.39738 -0.3063141,0.397381 -0.3063141,1.059681 0,0.596071 0.293896,0.952058 0.293896,0.351847 0.7036946,0.351847 0.4056592,0 0.6871371,-0.355987 0.2814778,-0.355986 0.2814778,-1.010008 z m 1.7145424,1.088657 q 0,-1.527432 0.4097986,-2.313914 0.413938,-0.786482 1.2169778,-0.786482 0.7119733,0 1.121772,0.637464 0.4967256,0.769925 0.4967256,2.462932 0,1.519152 -0.4097987,2.309774 -0.4097986,0.786482 -1.2169777,0.786482 -0.7119734,0 -1.1673052,-0.695416 -0.4511924,-0.695416 -0.4511924,-2.40084 z m 0.6250464,0 q 0,1.477758 0.2814778,1.982763 0.2856173,0.500865 0.7285309,0.500865 0.4180774,0 0.6995552,-0.509144 0.2814779,-0.509144 0.2814779,-1.974484 0,-1.481898 -0.2856172,-1.982763 Q 6.8146564,27.73656 6.363464,27.73656 q -0.413938,0 -0.6954159,0.509143 -0.2773384,0.509144 -0.2773384,1.974485 z"
         id="path11" />
    </g>
    <path
       style="font-weight:bold;font-size:9.32565px;line-height:0.8;font-family:'Arial Narrow';-inkscape-font-specification:'Arial Narrow';text-align:center;letter-spacing:0.488152px;text-anchor:middle;stroke-width:0.349711"
       d="M 3.0739544,6.1412461 H 2.2907626 V 1.8544646 H 1.4460199 l -0.00615,-0.4714057 c 0,0 0.3754059,-0.037124 0.8149724,-0.43161353 C 2.550675,0.65962202 2.5943907,0 2.5930771,-1.5984104e-6 h 0.4808773 z"
       id="text1-5"
       aria-label="1"
       sodipodi:nodetypes="ccccccccc" />
  </g>
</svg>
